<svg width="479" height="58" viewBox="0 0 479 58" fill="none" xmlns="http://www.w3.org/2000/svg">
<path d="M11.5667 1.31194L10.9969 0.490138L11.5667 0.0950904L12.1365 0.490138L11.5667 1.31194ZM12.5667 56.4319C12.5667 56.9842 12.119 57.4319 11.5667 57.4319C11.0144 57.4319 10.5667 56.9842 10.5667 56.4319L12.5667 56.4319ZM5.69694 4.1648L10.9969 0.490138L12.1365 2.13373L6.8365 5.8084L5.69694 4.1648ZM12.1365 0.490138L17.4365 4.1648L16.2969 5.8084L10.9969 2.13373L12.1365 0.490138ZM12.5667 1.31194L12.5667 56.4319L10.5667 56.4319L10.5667 1.31194L12.5667 1.31194Z" fill="#222222"/>
<path d="M472.667 1.31194L472.097 0.490138L472.667 0.0950904L473.236 0.490138L472.667 1.31194ZM473.667 56.4319C473.667 56.9842 473.219 57.4319 472.667 57.4319C472.114 57.4319 471.667 56.9842 471.667 56.4319L473.667 56.4319ZM466.797 4.1648L472.097 0.490138L473.236 2.13373L467.936 5.8084L466.797 4.1648ZM473.236 0.490138L478.536 4.1648L477.397 5.8084L472.097 2.13373L473.236 0.490138ZM473.667 1.31194L473.667 56.4319L471.667 56.4319L471.667 1.31194L473.667 1.31194Z" fill="#222222"/>
</svg>
